# xmcd
#
# Track frame offsets: 
#        150
#        14148
#        37719
#        64646
#        87836
#        99492
#        119504
#        141604
#        163538
#        182317
#        211137
#        225658
#
# Disc length: 3437 seconds
#
# Revision: 0
# Processed by: cddbd v1.5.2PL0 Copyright (c) Steve Scherf et al.
# Submitted via: ExactAudioCopyFreeDBPlugin 1.0
#
DISCID=990d6b0c
DTITLE=DBT - Blues de vache
DYEAR=2002
DGENRE=Blues
TTITLE0=Roberto
TTITLE1=Blues de vache
TTITLE2=Féria d'avril
TTITLE3=Monnaie courante
TTITLE4=La flûte enchantée
TTITLE5=Matin sur le lac
TTITLE6=Pisse and love
TTITLE7=Légion d'Honneur
TTITLE8=Bambou
TTITLE9=Louis
TTITLE10=Monde cruel
TTITLE11=Rêves de gosse
EXTD=
EXTT0=
EXTT1=
EXTT2=
EXTT3=
EXTT4=
EXTT5=
EXTT6=
EXTT7=
EXTT8=
EXTT9=
EXTT10=
EXTT11=
PLAYORDER=
